<?xml version="1.0" encoding="UTF-8" standalone="no"?>
<!-- Created with Inkscape (http://www.inkscape.org/) -->

<svg
   xmlns:dc="http://purl.org/dc/elements/1.1/"
   xmlns:cc="http://creativecommons.org/ns#"
   xmlns:rdf="http://www.w3.org/1999/02/22-rdf-syntax-ns#"
   xmlns:svg="http://www.w3.org/2000/svg"
   xmlns="http://www.w3.org/2000/svg"
   xmlns:sodipodi="http://sodipodi.sourceforge.net/DTD/sodipodi-0.dtd"
   xmlns:inkscape="http://www.inkscape.org/namespaces/inkscape"
   width="744.09448819"
   height="1052.3622047"
   id="svg2"
   version="1.1"
   inkscape:version="0.47pre4 r22446"
   sodipodi:docname="mobius.svg"
   inkscape:export-filename="/Users/masak/gwork/yapsi/logotype/logo32x32.png"
   inkscape:export-xdpi="68.540001"
   inkscape:export-ydpi="68.540001">
  <defs
     id="defs4">
    <inkscape:perspective
       sodipodi:type="inkscape:persp3d"
       inkscape:vp_x="0 : 526.18109 : 1"
       inkscape:vp_y="0 : 1000 : 0"
       inkscape:vp_z="744.09448 : 526.18109 : 1"
       inkscape:persp3d-origin="372.04724 : 350.78739 : 1"
       id="perspective10" />
    <inkscape:perspective
       id="perspective2884"
       inkscape:persp3d-origin="0.5 : 0.33333333 : 1"
       inkscape:vp_z="1 : 0.5 : 1"
       inkscape:vp_y="0 : 1000 : 0"
       inkscape:vp_x="0 : 0.5 : 1"
       sodipodi:type="inkscape:persp3d" />
  </defs>
  <sodipodi:namedview
     id="base"
     pagecolor="#ffffff"
     bordercolor="#666666"
     borderopacity="1.0"
     inkscape:pageopacity="0.0"
     inkscape:pageshadow="2"
     inkscape:zoom="1"
     inkscape:cx="407.98844"
     inkscape:cy="454.28614"
     inkscape:document-units="px"
     inkscape:current-layer="layer1"
     showgrid="false"
     inkscape:window-width="756"
     inkscape:window-height="926"
     inkscape:window-x="0"
     inkscape:window-y="0"
     inkscape:window-maximized="0" />
  <metadata
     id="metadata7">
    <rdf:RDF>
      <cc:Work
         rdf:about="">
        <dc:format>image/svg+xml</dc:format>
        <dc:type
           rdf:resource="http://purl.org/dc/dcmitype/StillImage" />
        <dc:title></dc:title>
      </cc:Work>
    </rdf:RDF>
  </metadata>
  <g
     inkscape:label="Layer 1"
     inkscape:groupmode="layer"
     id="layer1">
    <rect
       style="fill:#ffffff;fill-opacity:1;stroke:none"
       id="rect3719"
       width="429"
       height="429"
       x="157.54724"
       y="311.68109"
       inkscape:export-filename="/Users/masak/gwork/yapsi/logotype/logo_32x32.png"
       inkscape:export-xdpi="6.7132869"
       inkscape:export-ydpi="6.7132869" />
    <path
       sodipodi:type="arc"
       style="fill:#eeeeff;fill-opacity:1;stroke:none"
       id="path3727"
       sodipodi:cx="371"
       sodipodi:cy="530.36218"
       sodipodi:rx="192"
       sodipodi:ry="192"
       d="m 563,530.36218 a 192,192 0 1 1 -384,0 192,192 0 1 1 384,0 z"
       transform="translate(1.0472412,-4.1810913)" />
    <path
       style="fill:none;stroke:#000000;stroke-width:4;stroke-linecap:butt;stroke-linejoin:miter;stroke-miterlimit:4;stroke-opacity:1;stroke-dasharray:none"
       d="m 236.06402,527.31553 c 100.57607,10.25595 139.2763,-70.86528 190.89074,-76.69602 49.66221,-5.6102 76.91363,19.86175 81.31649,54.17689 4.58037,35.69847 -36.51601,56.84675 -67.69736,51.0421 -57.1997,-10.64817 -109.43161,-62.84173 -154.64946,-64.05226 -49.12905,-1.31522 -63.50855,45.16366 -50.72999,69.80651 18.55445,35.78142 47.50467,45.37613 87.31332,43.74995 36.30233,-1.48295 55.65165,-23.61037 80.95725,-43.33966 27.58883,-22.90735 53.10736,-47.8861 102.98585,-48.492"
       id="path2890"
       sodipodi:nodetypes="csssssscc" />
    <path
       style="fill:none;stroke:#000000;stroke-width:4;stroke-linecap:butt;stroke-linejoin:miter;stroke-miterlimit:4;stroke-opacity:1;stroke-dasharray:none"
       d="m 506.96249,477.86849 c 19.51976,17.39549 38.46984,54.76601 32.71199,76.38726 -10.49542,39.41118 -54.35188,55.24128 -102.67949,28.26976 -47.53542,-26.52941 -78.89145,-75.30397 -112.35537,-109.66282 -23.6849,-24.31832 -75.98756,-41.29275 -108.01608,-5.34633 -23.90647,26.83084 -12.15768,58.14433 9.10757,87.57044"
       id="path3664"
       sodipodi:nodetypes="cssssc" />
    <path
       style="fill:#eeeeff;fill-opacity:1;stroke:none"
       d="m 348.01703,501.9403 -5.94535,-6.92953 -12.43852,7.39346 11.01985,5.61613 7.36402,-6.08006 z"
       id="path3684"
       sodipodi:nodetypes="ccccc" />
    <path
       style="fill:#eeeeff;fill-opacity:1;stroke:none"
       d="m 421.98983,553.13803 -11.04277,-4.01996 -5.81117,8.16688 3.61642,3.09883 13.23752,-7.24575 z"
       id="path3686"
       sodipodi:nodetypes="ccccc" />
  </g>
</svg>
